# xmcd
#
# Track frame offsets:
#	150
#	18320
#	41617
#	58933
#	81137
#	106468
#	125567
#	145434
#	167734
#	183353
#	201719
#	224483
#	245194
#
# Disc length: 3531 seconds
#
# Revision: 2
# Processed by: cddbd v1.4PL0 Copyright (c) Steve Scherf et al.
# Submitted via: MusicWizard 6.0.1
#
DISCID=ce0dc90d
DTITLE=Raimundo Fagner - Ao Vivo  2
DYEAR=1900
DGENRE=
TTITLE0=Sinal Fechado
TTITLE1=Noturno
TTITLE2=Fanatismo
TTITLE3=Jura Secreta
TTITLE4=Canteiros (Na Hora Do Almoço/Aguas De Março)
TTITLE5=Borbulhas De Amor (Tenho Um Coraçao/Borbujas De Amor)
TTITLE6=Mucuripe
TTITLE7=Espumas Ao Vento
TTITLE8=Ai Que Saudade D'oce
TTITLE9=Lembrança De Um Beijo II
TTITLE10=Pedras Que Cantam
TTITLE11=Ultimo Trem
TTITLE12=Chama Quente
EXTD=
EXTT0=
EXTT1=
EXTT2=
EXTT3=
EXTT4=
EXTT5=
EXTT6=
EXTT7=
EXTT8=
EXTT9=
EXTT10=
EXTT11=
EXTT12=
PLAYORDER=
